<svg width="33" height="33" viewBox="0 0 33 33" fill="none" xmlns="http://www.w3.org/2000/svg">
<path d="M25.333 11.5001H24.333V10.5001C24.333 8.37833 23.4902 6.3435 21.9899 4.84321C20.4896 3.34292 18.4547 2.50006 16.333 2.50006C14.2113 2.50006 12.1764 3.34292 10.6762 4.84321C9.17586 6.3435 8.33301 8.37833 8.33301 10.5001V11.5001H7.33301C6.53736 11.5001 5.7743 11.8161 5.21169 12.3787C4.64908 12.9413 4.33301 13.7044 4.33301 14.5001V27.5001C4.33301 28.2957 4.64908 29.0588 5.21169 29.6214C5.7743 30.184 6.53736 30.5001 7.33301 30.5001H25.333C26.1287 30.5001 26.8917 30.184 27.4543 29.6214C28.0169 29.0588 28.333 28.2957 28.333 27.5001V14.5001C28.333 13.7044 28.0169 12.9413 27.4543 12.3787C26.8917 11.8161 26.1287 11.5001 25.333 11.5001ZM10.333 10.5001C10.333 8.90876 10.9651 7.38264 12.0904 6.25742C13.2156 5.1322 14.7417 4.50006 16.333 4.50006C17.9243 4.50006 19.4504 5.1322 20.5756 6.25742C21.7009 7.38264 22.333 8.90876 22.333 10.5001V11.5001H10.333V10.5001ZM26.333 27.5001C26.333 27.7653 26.2277 28.0196 26.0401 28.2072C25.8526 28.3947 25.5982 28.5001 25.333 28.5001H7.33301C7.06779 28.5001 6.81344 28.3947 6.6259 28.2072C6.43836 28.0196 6.33301 27.7653 6.33301 27.5001V14.5001C6.33301 14.2348 6.43836 13.9805 6.6259 13.793C6.81344 13.6054 7.06779 13.5001 7.33301 13.5001H25.333C25.5982 13.5001 25.8526 13.6054 26.0401 13.793C26.2277 13.9805 26.333 14.2348 26.333 14.5001V27.5001Z" fill="#84828A"/>
<path d="M16.3327 16.5001C15.6258 16.4987 14.9413 16.7476 14.4004 17.2026C13.8595 17.6575 13.497 18.2893 13.3773 18.9859C13.2575 19.6825 13.3881 20.399 13.746 21.0085C14.1039 21.6181 14.666 22.0812 15.3327 22.3161V24.5001C15.3327 24.7653 15.438 25.0196 15.6256 25.2072C15.8131 25.3947 16.0674 25.5001 16.3327 25.5001C16.5979 25.5001 16.8522 25.3947 17.0398 25.2072C17.2273 25.0196 17.3327 24.7653 17.3327 24.5001V22.3161C17.9993 22.0812 18.5614 21.6181 18.9193 21.0085C19.2772 20.399 19.4078 19.6825 19.288 18.9859C19.1683 18.2893 18.8058 17.6575 18.2649 17.2026C17.724 16.7476 17.0395 16.4987 16.3327 16.5001ZM16.3327 20.5001C16.1349 20.5001 15.9415 20.4414 15.7771 20.3315C15.6126 20.2217 15.4845 20.0655 15.4088 19.8827C15.3331 19.7 15.3133 19.499 15.3519 19.305C15.3905 19.111 15.4857 18.9328 15.6256 18.793C15.7654 18.6531 15.9436 18.5579 16.1376 18.5193C16.3316 18.4807 16.5326 18.5005 16.7153 18.5762C16.8981 18.6519 17.0543 18.78 17.1641 18.9445C17.274 19.1089 17.3327 19.3023 17.3327 19.5001C17.3327 19.7653 17.2273 20.0196 17.0398 20.2072C16.8522 20.3947 16.5979 20.5001 16.3327 20.5001Z" fill="#84828A"/>
</svg>
