<svg width="30" height="30" viewBox="0 0 30 30" fill="none" xmlns="http://www.w3.org/2000/svg">
<g clip-path="url(#clip0_26_248)">
<path d="M16.1768 13.4867C19.6154 12.9287 21.9506 9.68889 21.3926 6.25033C20.8346 2.81177 17.5948 0.476591 14.1562 1.03456C10.7177 1.59254 8.3825 4.83236 8.94047 8.27092C9.49845 11.7095 12.7383 14.0447 16.1768 13.4867Z" fill="#1D1D1D"/>
<path d="M1.38232 22.2953C1.38232 26.0199 4.40922 29.0468 8.1339 29.0468H22.1989C25.9236 29.0468 28.9505 26.0199 28.9505 22.2953C28.9505 18.5706 25.9236 15.5437 22.1989 15.5437H8.1339C4.40922 15.5437 1.38232 18.5706 1.38232 22.2953Z" fill="#1D1D1D"/>
</g>
<defs>
<clipPath id="clip0_26_248">
<rect width="29" height="29" fill="white" transform="translate(0.666504 0.5)"/>
</clipPath>
</defs>
</svg>
